# xmcd
#
# Track frame offsets:
# 150
# 7602
# 23271
# 43731
# 58140
# 73221
# 89580
# 103974
# 125268
# 141645
# 155463
# 167724
# 182993
# 202445
# 216483
# 246327
# 262377
#
# Disc length: 3809 seconds
#
#
# Revision: 0
# Processed by: cddbd v1.5.1PL2 Copyright (c) Steve Scherf et al.
# Submitted via: FreeRIP 2.945 
#
DISCID=0f0edf11
DTITLE=the Bogus Blues Brothers - Live in the Lounge
DYEAR=2005
DGENRE=Blues
TTITLE0=Can't turn you lose
TTITLE1=Gimme some loving
TTITLE2=She caught the Katy
TTITLE3=Soul Finger
TTITLE4=Soul man
TTITLE5=Sitting on the dock of the bay
TTITLE6=I got you (I feel good)
TTITLE7=Sweet home Chicago
TTITLE8=Everybody need somebody to love
TTITLE9=Guilty
TTITLE10=Perry Mason
TTITLE11=Riot in the cell block number nine
TTITLE12=Minnie the Moocher
TTITLE13=Shake a tail feather
TTITLE14=Scottish Soul Medley
TTITLE15=Jail house rock
TTITLE16=Mustang ssally
EXTD=At the Kings Head
EXTT0=
EXTT1=
EXTT2=
EXTT3=
EXTT4=
EXTT5=
EXTT6=
EXTT7=
EXTT8=
EXTT9=
EXTT10=
EXTT11=
EXTT12=
EXTT13=
EXTT14=
EXTT15=
EXTT16=
PLAYORDER=
